<?xml version="1.0" encoding="utf-8"?>
<!-- Generator: Adobe Illustrator 26.5.0, SVG Export Plug-In . SVG Version: 6.00 Build 0)  -->
<svg version="1.1" id="Calque_1" xmlns="http://www.w3.org/2000/svg" xmlns:xlink="http://www.w3.org/1999/xlink" x="0px" y="0px"
	 viewBox="0 0 760 173" style="enable-background:new 0 0 760 173;" xml:space="preserve">
<style type="text/css">
	.st0{fill:#B01A2C;}
	.st1{fill:#0B0B0B;}
</style>
<g>
	<g>
		<path class="st0" d="M0.2,5.6c0-3.3,2.7-6,6-6c248.9,0,497.8,0,746.7-0.1c5.7,0,7.1,1.3,7,7c-0.2,52.4-0.2,104.8-0.2,157.2
			c0,4.9-4,9-9,9c-247,0-494,0-741.1,0.2c-7.4,0-9.9-1.3-9.8-9.4C0.4,110.8,0.2,58.2,0.2,5.6z M450.9,83.8
			C450.9,83.8,450.9,83.8,450.9,83.8c0,16.7,0,33.4-0.1,50.1c0,4,1.4,7.5,5.8,7.1c3.7-0.3,6.9-2.1,6.9-7.2
			c-0.2-32.9-0.1-65.7-0.2-98.6c0-4-0.3-8.4-6.3-8.3c-5.9,0.1-6.2,4.1-6.1,8.4C450.9,51.5,450.9,67.6,450.9,83.8z M583.4,84
			c0-14.4,0-28.8,0-43.2c0-4.4-1.7-7.4-6.6-7.5c-4.9-0.1-6.6,2.8-6.6,7.3c0,29.1,0,58.1,0,87.2c0,4.9,2.1,9.3,6.7,9.2
			c4-0.1,6.1-4.7,6.4-9c0.1-1.5,0-3,0-4.5C583.4,110.3,583.4,97.2,583.4,84z M306.9,83c0,13.9,0,27.8,0,41.7
			c0,4.8-0.7,10.4,6.7,10.2c6.7-0.2,6.3-5.3,6.3-9.9c0-15.4,0-30.8,0-46.2c0-12.6,0-25.2,0-37.9c0-4.8-1.9-7.4-7.2-7.6
			c-5.8-0.2-5.8,3.2-5.8,7.3C306.9,54.7,306.9,68.8,306.9,83z M666.3,83.8C666.3,83.8,666.3,83.8,666.3,83.8c0,16.7,0,33.3,0.1,50
			c0,3.5,0.1,6.6,5.3,7.5c5.3,0.9,5.5-2.8,6.9-5.4c0.8-1.4,0.7-3.4,0.7-5.1c0-31.8,0-63.6,0-95.4c0-4.8-1-8.6-7-8.5
			c-5.9,0.1-6.1,4.2-6,8.5C666.3,51.5,666.3,67.7,666.3,83.8z M546.6,84.6C546.6,84.6,546.6,84.6,546.6,84.6c0,13.7,0,27.3-0.1,41
			c0,4.5-0.1,9,6.2,9.2c6.3,0.2,6.6-4.1,6.6-8.8c0-27.8,0-55.7,0-83.5c0-4.4,0.3-9.1-6.2-9.2c-6.9-0.1-6.6,4.9-6.6,9.5
			C546.6,56.7,546.6,70.7,546.6,84.6z M511.5,84.6c0-16.4,0-32.9,0-49.3c0-4.8-0.8-8.7-7-8.4c-5.9,0.4-5.9,4.6-5.9,8.8
			c0,32.4,0,64.7,0,97.1c0,4.4,0.6,8.3,6.3,8.4c6.3,0.1,6.6-4.2,6.6-8.8C511.5,116.4,511.5,100.5,511.5,84.6z M703.3,84.6
			C703.3,84.6,703.3,84.6,703.3,84.6c0-16.4-0.1-32.8,0-49.2c0-4.8-0.7-8.8-6.8-8.6c-5.7,0.2-6.1,4.1-6.1,8.5c0,32.3,0,64.6,0,96.8
			c0,4.6,0.2,8.9,6.4,8.9c6.2,0,6.5-4.3,6.5-8.9C703.2,116.4,703.3,100.5,703.3,84.6z M487.6,83.8c0-13.9,0-27.7,0-41.6
			c0-4.6-0.5-8.9-6.6-8.9c-6,0.1-6.7,4.2-6.7,8.9c0,28,0.1,56,0,84c0,4.9,1.2,8.6,7.1,8.5c5.7-0.1,6.2-4.2,6.2-8.5
			C487.6,112.1,487.6,97.9,487.6,83.8z M535.6,83.8C535.7,83.8,535.7,83.8,535.6,83.8c0-11.6,0-23.2,0.1-34.9c0-4.6-0.3-8.8-6.6-8.9
			c-6.3-0.1-6.8,3.8-6.7,8.6c0.1,23.5,0.1,47,0,70.5c0,5,0.9,8.7,6.9,8.5c6-0.2,6.5-4.2,6.5-9C535.5,107.1,535.6,95.5,535.6,83.8z
			 M439.9,84.7c0-9.6-0.1-19.2,0-28.7c0.1-5-0.5-9.4-7.1-9.1c-6.3,0.3-6.1,4.7-6.1,9.2c0,19.2,0.1,38.3-0.1,57.5
			c0,4.2,0.1,7.5,5.6,7.6c5.6,0.2,7.8-2.4,7.8-7.8C439.8,103.9,439.8,94.3,439.9,84.7z M211.1,83.2c0,10.3,0.1,20.6,0,31
			c0,4.2,1.5,6.8,6,7c4.9,0.2,6.8-2.5,6.8-7.1c0-20.1,0-40.3,0-60.4c0-4.7-2.3-6.8-7.1-6.8c-5.1,0-5.7,3.1-5.7,6.9
			C211.2,63.5,211.1,73.3,211.1,83.2z M642.3,83.8c0,9.8-0.1,19.7,0.1,29.5c0.1,2.9-1.2,7.5,3.9,7c4.1-0.4,9.3-0.2,9.2-7.3
			c-0.3-19.7-0.2-39.4-0.1-59.1c0-4.6-1.8-7.3-6.7-7.2c-5,0.1-6.4,3.1-6.4,7.5C642.4,64.1,642.3,74,642.3,83.8z M631.4,84.3
			C631.4,84.3,631.3,84.3,631.4,84.3c0-7.8-0.1-15.6,0-23.5c0.1-4.5-1.5-7.4-6.4-7.5c-4.9-0.2-6.9,2.7-6.9,7.1c0,15.6,0,31.3,0,46.9
			c0,4.5,2,7.3,6.8,7.2c4.9-0.1,6.4-3.2,6.4-7.6C631.3,99.5,631.4,91.9,631.4,84.3z M330.9,83.8C330.9,83.8,330.9,83.8,330.9,83.8
			c0,8.1,0,16.1,0,24.2c0,4.3,2.1,6.6,6.5,6.6c4,0.1,6.5-1.9,6.5-5.8c0.1-16.4,0.1-32.7-0.1-49.1c-0.1-4-2.5-6.5-6.8-6.3
			c-4.5,0.2-6,2.8-6,7C331,68.2,330.9,76,330.9,83.8z M283.1,83.3C283.2,83.3,283.2,83.3,283.1,83.3c0,8.1,0.1,16.2,0,24.2
			c0,4.2,1.5,6.9,6.1,7c4.4,0.1,6.7-2.1,6.8-6.4c0.1-16.2,0.1-32.3,0-48.5c0-4.6-3.4-6-7.1-6.2c-4-0.1-5.8,2.3-5.8,6.4
			C283.2,67.7,283.1,75.5,283.1,83.3z M594.5,83.2C594.5,83.2,594.4,83.2,594.5,83.2c-0.1,6.1,0,12.1-0.1,18.2
			c-0.1,4.5,2,6.3,6.5,6.3c4.5,0,6.6-2,6.6-6.4c0-11.6,0.1-23.2-0.1-34.8c0-4-1.7-6.7-6.5-6.4c-4.2,0.3-6.6,1.8-6.5,6.5
			C594.6,72.1,594.5,77.7,594.5,83.2z M271.8,84.4C271.8,84.4,271.7,84.4,271.8,84.4c-0.1-4,0.1-8.1-0.1-12.1
			c-0.2-4.1-2.9-5.5-6.7-5.5c-4.1,0-6,1.8-5.9,5.9c0.1,7.6,0.1,15.1,0,22.7c0,3.9,2.1,6.4,5.7,6.7c4.2,0.4,6.5-2.6,7-6.4
			C272.1,92,271.8,88.2,271.8,84.4z M248,84.1c0-3.5,0-7,0-10.5c0-4.3-2-6.7-6.3-6.7c-4.2,0-6.6,2-6.7,6.4c0,7,0,14.1-0.1,21.1
			c0,4.3,2.1,6.5,6.4,6.6c4.3,0.1,6.7-2,6.7-6.3C248,91.1,248,87.6,248,84.1z M415.5,84.1C415.5,84.1,415.5,84.1,415.5,84.1
			c0-4,0.2-8.1-0.1-12.1c-0.2-3.6-2.7-5.3-6.3-5.2c-3.4,0.1-6.1,1.6-6.1,5.4c-0.1,7.8-0.1,15.7,0,23.5c0,4,2.9,6.5,6.2,6.3
			c3.1-0.2,6.2-2.4,6.3-6.4C415.5,91.7,415.5,87.9,415.5,84.1z M355.1,83.6c0,3.8,0,7.6,0,11.4c0,4,1.9,6.2,6,6.1
			c3.8,0,6.5-1.6,6.5-5.8c0.1-7.6,0.1-15.1,0-22.7c-0.1-4-2.6-5.9-6.5-5.8c-4,0.1-6.1,2.2-6,6.2C355.1,76.5,355.1,80.1,355.1,83.6z
			 M727.4,83.3c-0.3-3.2,1.2-8.2-4.9-9.5c-2.5-0.5-5.6-0.9-7,1.7c-2.7,5.2-2.1,10.8-0.6,16.1c0.8,2.6,3.7,3.4,6.4,3
			C727.9,93.7,727.4,88.8,727.4,83.3z M187.1,83.1c0.1,5.5-1,11.6,6.7,11.4c7-0.2,6.4-5.8,6.4-10.7c0-4.9,0.3-10-7-9.9
			C185.9,74,187.4,79.3,187.1,83.1z M378.6,83.8c-0.1,4.9-0.9,10.4,6.2,10.7c7.1,0.4,7.4-4.8,7.1-9.9c-0.2-4.8,1.4-10.9-6.7-11
			C377.8,73.5,378.7,79,378.6,83.8z"/>
		<path class="st1" d="M450.9,83.8c0-16.2,0-32.4,0-48.5c0-4.3,0.2-8.3,6.1-8.4c6.1-0.1,6.3,4.2,6.3,8.3c0.1,32.9,0,65.7,0.2,98.6
			c0,5.1-3.2,6.9-6.9,7.2c-4.5,0.4-5.8-3.1-5.8-7.1C450.9,117.2,450.8,100.5,450.9,83.8C450.9,83.8,450.9,83.8,450.9,83.8z"/>
		<path class="st1" d="M583.4,84c0,13.1,0,26.3,0,39.4c0,1.5,0.1,3,0,4.5c-0.3,4.3-2.4,8.9-6.4,9c-4.7,0.1-6.7-4.3-6.7-9.2
			c0.1-29.1,0.1-58.1,0-87.2c0-4.5,1.7-7.4,6.6-7.3c4.9,0.1,6.6,3.1,6.6,7.5C583.4,55.2,583.4,69.6,583.4,84z"/>
		<path class="st1" d="M306.9,83c0-14.1,0.1-28.3,0-42.4c0-4.1,0-7.5,5.8-7.3c5.3,0.2,7.2,2.7,7.2,7.6c0,12.6,0,25.2,0,37.9
			c0,15.4,0,30.8,0,46.2c0,4.6,0.4,9.8-6.3,9.9c-7.4,0.2-6.7-5.4-6.7-10.2C306.8,110.7,306.9,96.9,306.9,83z"/>
		<path class="st1" d="M666.3,83.8c0-16.2,0-32.3,0-48.5c0-4.3,0.1-8.3,6-8.5c6-0.1,7,3.7,7,8.5c0,31.8,0,63.6,0,95.4
			c0,1.7,0.1,3.7-0.7,5.1c-1.4,2.6-1.7,6.4-6.9,5.4c-5.2-0.9-5.3-4-5.3-7.5C666.3,117.1,666.3,100.5,666.3,83.8
			C666.3,83.8,666.3,83.8,666.3,83.8z"/>
		<path class="st1" d="M546.6,84.6c0-13.9,0-27.8,0-41.7c0-4.7-0.3-9.6,6.6-9.5c6.5,0.1,6.2,4.8,6.2,9.2c0,27.8,0,55.7,0,83.5
			c0,4.7-0.3,8.9-6.6,8.8c-6.3-0.2-6.3-4.6-6.2-9.2C546.6,111.9,546.5,98.2,546.6,84.6C546.6,84.6,546.6,84.6,546.6,84.6z"/>
		<path class="st1" d="M511.5,84.6c0,15.9,0,31.8,0,47.8c0,4.6-0.3,8.9-6.6,8.8c-5.7-0.1-6.3-4-6.3-8.4c0-32.4,0-64.7,0-97.1
			c0-4.2,0-8.4,5.9-8.8c6.2-0.4,7,3.6,7,8.4C511.5,51.7,511.5,68.1,511.5,84.6z"/>
		<path class="st1" d="M703.3,84.6c0,15.9,0,31.8,0,47.7c0,4.6-0.3,8.9-6.5,8.9c-6.2,0-6.5-4.4-6.4-8.9c0-32.3,0.1-64.6,0-96.8
			c0-4.4,0.5-8.3,6.1-8.5c6.1-0.2,6.8,3.7,6.8,8.6C703.2,51.8,703.2,68.2,703.3,84.6C703.3,84.6,703.3,84.6,703.3,84.6z"/>
		<path class="st1" d="M487.6,83.8c0,14.1,0,28.2,0,42.4c0,4.3-0.4,8.4-6.2,8.5c-5.9,0.1-7.1-3.6-7.1-8.5c0-28,0-56,0-84
			c0-4.7,0.6-8.8,6.7-8.9c6.2-0.1,6.6,4.2,6.6,8.9C487.6,56.1,487.6,69.9,487.6,83.8z"/>
		<path class="st1" d="M535.6,83.8c0,11.6-0.1,23.2,0.1,34.9c0.1,4.8-0.5,8.8-6.5,9c-6,0.2-6.9-3.5-6.9-8.5c0.1-23.5,0.1-47,0-70.5
			c0-4.8,0.5-8.7,6.7-8.6c6.3,0.1,6.6,4.3,6.6,8.9C535.7,60.6,535.7,72.2,535.6,83.8C535.7,83.8,535.7,83.8,535.6,83.8z"/>
		<path class="st1" d="M439.9,84.7c0,9.6-0.1,19.2,0,28.7c0.1,5.3-2.1,7.9-7.8,7.8c-5.5-0.2-5.6-3.4-5.6-7.6
			c0.2-19.2,0.2-38.3,0.1-57.5c0-4.5-0.2-9,6.1-9.2c6.6-0.3,7.2,4.1,7.1,9.1C439.8,65.5,439.9,75.1,439.9,84.7z"/>
		<path class="st1" d="M211.1,83.2c0-9.8,0-19.6,0-29.5c0-3.9,0.6-7,5.7-6.9c4.8,0,7.1,2.1,7.1,6.8c0,20.1,0,40.3,0,60.4
			c0,4.5-1.9,7.2-6.8,7.1c-4.6-0.2-6.1-2.8-6-7C211.2,103.8,211.1,93.5,211.1,83.2z"/>
		<path class="st1" d="M642.3,83.8c0-9.8,0.1-19.7,0-29.5c0-4.4,1.4-7.4,6.4-7.5c4.9-0.1,6.7,2.6,6.7,7.2
			c-0.1,19.7-0.2,39.4,0.1,59.1c0.1,7.1-5.1,6.9-9.2,7.3c-5.2,0.5-3.9-4.1-3.9-7C642.2,103.5,642.3,93.7,642.3,83.8z"/>
		<path class="st1" d="M631.4,84.3c0,7.6-0.1,15.1,0,22.7c0,4.4-1.5,7.5-6.4,7.6c-4.8,0.1-6.8-2.7-6.8-7.2c0-15.6-0.1-31.3,0-46.9
			c0-4.5,2-7.3,6.9-7.1c4.9,0.2,6.5,3,6.4,7.5C631.2,68.7,631.3,76.5,631.4,84.3C631.3,84.3,631.4,84.3,631.4,84.3z"/>
		<path class="st1" d="M330.9,83.8c0-7.8,0.1-15.6,0-23.4c-0.1-4.2,1.5-6.8,6-7c4.4-0.2,6.8,2.3,6.8,6.3c0.2,16.4,0.2,32.7,0.1,49.1
			c0,3.9-2.5,5.9-6.5,5.8c-4.4-0.1-6.5-2.3-6.5-6.6C330.9,99.9,330.9,91.9,330.9,83.8C330.9,83.8,330.9,83.8,330.9,83.8z"/>
		<path class="st1" d="M283.1,83.3c0-7.8,0.1-15.6,0-23.5c-0.1-4,1.8-6.5,5.8-6.4c3.7,0.1,7.1,1.6,7.1,6.2c0,16.2,0,32.3,0,48.5
			c0,4.3-2.4,6.5-6.8,6.4c-4.6-0.1-6.1-2.8-6.1-7C283.3,99.5,283.2,91.4,283.1,83.3C283.2,83.3,283.2,83.3,283.1,83.3z"/>
		<path class="st1" d="M594.5,83.2c0-5.5,0.1-11.1,0-16.6c-0.2-4.6,2.3-6.1,6.5-6.5c4.8-0.4,6.5,2.4,6.5,6.4
			c0.1,11.6,0.1,23.2,0.1,34.8c0,4.3-2.2,6.4-6.6,6.4c-4.4,0-6.5-1.8-6.5-6.3C594.5,95.3,594.4,89.3,594.5,83.2
			C594.4,83.2,594.5,83.2,594.5,83.2z"/>
		<path class="st1" d="M271.8,84.4c0,3.8,0.4,7.6-0.1,11.3c-0.5,3.8-2.8,6.9-7,6.4c-3.5-0.4-5.7-2.8-5.7-6.7
			c0.1-7.6,0.1-15.1,0-22.7c-0.1-4.2,1.8-6,5.9-5.9c3.8,0,6.5,1.4,6.7,5.5C271.9,76.4,271.7,80.4,271.8,84.4
			C271.7,84.4,271.8,84.4,271.8,84.4z"/>
		<path class="st1" d="M248,84.1c0,3.5,0,7,0,10.5c0,4.4-2.4,6.4-6.7,6.3c-4.3-0.1-6.5-2.3-6.4-6.6c0.1-7,0.1-14.1,0.1-21.1
			c0-4.4,2.5-6.5,6.7-6.4c4.3,0,6.4,2.5,6.3,6.7C248,77.1,248,80.6,248,84.1z"/>
		<path class="st1" d="M415.5,84.1c0,3.8,0.1,7.6,0,11.4c-0.1,4.1-3.2,6.3-6.3,6.4c-3.3,0.2-6.2-2.3-6.2-6.3
			c-0.1-7.8-0.1-15.7,0-23.5c0.1-3.8,2.7-5.2,6.1-5.4c3.6-0.1,6,1.5,6.3,5.2C415.7,76,415.4,80.1,415.5,84.1
			C415.5,84.1,415.5,84.1,415.5,84.1z"/>
		<path class="st1" d="M355.1,83.6c0-3.5,0-7.1,0-10.6c0-4,2.1-6.1,6-6.2c3.9-0.1,6.4,1.8,6.5,5.8c0.1,7.6,0.1,15.1,0,22.7
			c-0.1,4.1-2.7,5.7-6.5,5.8c-4.1,0-6-2.1-6-6.1C355.1,91.2,355.1,87.4,355.1,83.6z"/>
		<path class="st1" d="M727.4,83.3c0.1,5.5,0.5,10.4-6,11.3c-2.7,0.4-5.7-0.4-6.4-3c-1.6-5.3-2.2-11,0.6-16.1c1.4-2.6,4.5-2.2,7-1.7
			C728.5,75.1,727.1,80.1,727.4,83.3z"/>
		<path class="st1" d="M187.1,83.1c0.3-3.8-1.3-9.1,6.1-9.1c7.4,0,7,5,7,9.9c0,4.8,0.6,10.5-6.4,10.7
			C186.1,94.7,187.2,88.6,187.1,83.1z"/>
		<path class="st1" d="M378.6,83.8c0.1-4.8-0.8-10.3,6.7-10.2c8.1,0.1,6.4,6.2,6.7,11c0.2,5.1-0.1,10.3-7.1,9.9
			C377.7,94.2,378.5,88.6,378.6,83.8z"/>
	</g>
	<circle class="st1" cx="91.4" cy="84.1" r="56.7"/>
	<path class="st0" d="M61.9,59.8c0,0,35.3-5.8,54.3,2.4s16.5,11.7,16.5,11.7s0.2,10.8-10.6,3.6s-26.3-8.6-26.3-8.6s-25.8-1.4-34,1.6
		c-8.2,3-9.7-0.6-9.7-0.6S46.6,62.2,61.9,59.8z"/>
	<path class="st0" d="M63.6,79.3c0,0,30.2-4.9,46.4,2s14.1,10,14.1,10s0.2,9.2-9,3.1S92.7,87,92.7,87s-22.1-1.2-29.1,1.4
		c-7,2.5-8.3-0.5-8.3-0.5S50.6,81.3,63.6,79.3z"/>
	<path class="st0" d="M66.7,96.9c0,0,24.9-4.1,38.2,1.7c13.4,5.7,11.6,8.3,11.6,8.3s0.2,7.6-7.4,2.5s-18.5-6.1-18.5-6.1
		s-18.2-1-23.9,1.1s-6.8-0.4-6.8-0.4S56,98.6,66.7,96.9z"/>
</g>
</svg>
