<?xml version="1.0" encoding="utf-8"?>
<!-- Generator: Adobe Illustrator 26.5.0, SVG Export Plug-In . SVG Version: 6.00 Build 0)  -->
<svg version="1.1" id="Calque_1" xmlns="http://www.w3.org/2000/svg" xmlns:xlink="http://www.w3.org/1999/xlink" x="0px" y="0px"
	 viewBox="0 0 139.8 98.5" style="enable-background:new 0 0 139.8 98.5;" xml:space="preserve">
<style type="text/css">
	.st0{fill:#0E0D0E;}
	.st1{fill:#F9F9F9;}
	.st2{fill:#B9212F;}
</style>
<g>
	<g>
		<path class="st0" d="M69.6-0.3c22.8,0,45.6,0,68.4,0c1.5,0,1.6,0.4,1.6,1.6c0,32.1,0,64.1,0,96.2c0,1.3-0.2,1.6-1.7,1.6
			c-45.6,0-91.2,0-136.9,0c-1.4,0-1.5-0.3-1.5-1.5c0-32.1,0-64.3,0-96.4c0-1.2,0.2-1.5,1.6-1.5C24-0.2,46.8-0.3,69.6-0.3z
			 M69.1,35.6c-0.1-0.1-0.2-0.2-0.4-0.4c1.4-2.4,2.9-4.7,4.3-7.1c0.3-0.5,0.7-0.9,1.5-0.9c5.7,0.3,11.3-0.4,16.7-1.7
			c4-0.9,7.8-2.1,11.6-3.7c2.6-1.1,5.2-2,7.5-3.7c2.3-1.7,3.9-3.9,4.1-6.6c0.4-4.3-3.2-8-8.3-9C101.4,1.6,97,2.9,92.9,5
			c-4.9,2.4-8.7,5.8-12.2,9.7c-0.7,0.8-1.5,1.2-2.6,0.9c-0.9-0.2-1.8-0.2-2.8-0.3c0-1.2,2.4-2,0.6-3.1c-1.3-0.8-2.3,0.5-3.4,1
			c-0.9,0.5-0.8,1.1,0.3,1.9c-4.2-0.7-8-0.4-11.7-0.9c-2.9-0.4-5.9-0.6-8.8-0.5c-2.6,0.1-4.9,0.8-6.8,2.5c-1,0.9-1.7,2.1-1.1,3.4
			c0.9,2.3,2.7,4.2,4.6,5.8c0.3,0.3,0.8,0.5,1.2,0.1c0.4-0.4-0.1-0.8-0.3-1.1c-0.9-1.3-2-2.5-2.8-3.8c-1.8-2.9-1-4.3,2.6-4.9
			c3.5-0.6,6.9-0.2,10.4,0.1c3.7,0.3,7.4,0.8,11.1,1.3C68.3,22.2,65.5,27,63,32c-2,4-4.3,8-4.4,12.6c-4-1.4-8.2-1.7-12.5-1.7
			c-1,0-1.3,0.3-1.3,1.2c0,16.5,0,33,0,49.4c0,0.4-0.2,1.1,0.3,1.1c1.1,0.1,2.4,0.2,3.4,0c0.7-0.2,0.3-1.2,0.3-1.8
			c0-6.6,0-13.2,0-19.7c0-0.5-0.5-1.4,0.7-1.5c4.8-0.2,10.9,1.4,12.6,7.5c0.8,2.9,0.9,5.9,0.8,8.8c-0.1,1.8,0.3,3.5,1,5.2
			c0.3,0.6,0.5,1.1,1.3,1c1.2,0,2.5,0,3.9,0c-1.5-2.7-2.3-5.4-2.4-8.2c0-1.7,0.1-3.4,0-5.2c-0.2-4.1-2.2-7.1-6.4-8.8
			c-1.1-0.4-2.2-0.8-3.5-1.3c0.6-0.3,1-0.4,1.4-0.6c5.4-2.6,8.5-6.8,9.1-12.2c0.7-5.7-2.7-9.8-7.7-12.8c0.7-0.3,1.1-0.9,0.8-1.6
			c-0.4-0.9-0.2-1.8,0.1-2.6C63,35.4,65.9,30.2,69,25c0.3,0.5,0.5,1.1,0.9,1.3c1.8,0.8,0.9,1.7,0.3,2.8c-2.3,3.8-4.5,7.7-6.7,11.5
			c-0.4,0.6-0.6,1.3,0.1,1.7c0.7,0.4,1.1-0.3,1.6-0.7c1.9-2,3.9-3.9,6.1-5.7c1.3-1.1,2.7-2.3,4.4-3c0.2,0.8-0.4,1.1-0.7,1.5
			c-1,1.4-2,2.9-2.7,4.5c-0.4,1-0.6,1.9,0.4,2.8c1,0.8,2,1.1,3.2,0.5c1.1-0.5,2.2-0.9,3.2-1.5c0.9-0.5,1.4-0.8,2.1,0.2
			c1.1,1.4,2.7,1.6,4.5,1.1c1.7-0.5,3-1.5,4.5-2.7c-1.6-0.2-2.7,0.5-3.9,0.7c-1.3,0.3-2.6,1.2-3.8,0c-1.1-1.2-0.2-2.5,0.2-3.7
			c0.1-0.4,0.4-0.7,0.6-1.1c0.7-1.5,1.8-2.1,3.6-2c2.4,0.1,4.8-0.1,7.1-0.1c1.6,0,2.9-0.6,4-1.6c0.3-0.3,0.7-0.6,0.4-1.1
			c-0.4-0.5-0.8-0.1-1.1,0.1c-1.8,1.3-3.8,1.3-5.9,1c-0.1-0.6,0.3-0.6,0.6-0.7c1.7-1.2,2-2.4,1.1-3.7c-0.9-1.3-2.1-1.4-4-0.3
			c-4,2.3-7.1,5.4-8.3,9.6c-0.6,2.1-1.8,3-3.6,3.7c-0.6,0.3-1.4,0.8-1.9,0.2c-0.5-0.5-0.1-1.2,0.2-1.8c1-2.2,2.2-4.3,3.7-6.3
			c0.4-0.6,0.4-0.9-0.1-1.5c-0.5-0.6-1-0.4-1.5-0.3c-1.1,0.4-2.3,0.7-3.3,1.4C72.6,33.1,70.9,34.4,69.1,35.6z M38.3,94.7
			c0.3,0,0.7,0,1,0c1.8,0.3,2.2-0.2,1.7-1.9C35.4,71.5,30,50.3,24.5,29c-1.1-4.1-1.1-4.1-5.3-4c-1,0-1.5,0.3-1.6,1.2
			c-0.6,3.6-1.3,7.1-2,10.7C11.9,55.7,8.4,74.5,4.8,93.3c-0.1,0.5-0.6,1.2,0.2,1.3c0.6,0.1,1.5,0.4,1.9-0.3c0.3-0.5,0.3-1,0.4-1.5
			c2-9.3,3.9-18.6,5.9-27.9c0.2-0.8,0.5-1.2,1.5-1.2c3.8,0.1,7.6,0.1,11.4,0c1.2,0,1.5,0.4,1.7,1.3c2.2,8.9,4.4,17.8,6.5,26.6
			C35.1,94.7,35.1,94.7,38.3,94.7z M129.2,69.6c0-7.8,0-15.6,0-23.5c0-1.4,0.4-1.7,1.8-1.6c1.4,0.1,2.8,0,4.3,0c0.6,0,1,0,1-0.7
			c0-0.6-0.1-1-0.9-1c-5.4,0-10.8,0-16.2,0c-0.8,0-1,0.3-1,1c0,0.7,0.3,0.8,0.9,0.8c1.4,0,2.8,0.1,4.2,0c1.5-0.1,1.9,0.3,1.9,1.7
			c-0.1,15.6,0,31.2-0.1,46.8c0,1.5,0.6,1.8,2,1.7c1.2-0.1,2.3,0.3,2.2-1.6C129.1,85.3,129.2,77.5,129.2,69.6z M80.1,69.6
			c0-7.8,0-15.6,0-23.5c0-1.4,0.4-1.7,1.8-1.6c1.4,0.1,2.8,0,4.2,0c0.5,0,1,0.1,1-0.7c0-0.6,0-1-0.9-1c-5.4,0-10.8,0-16.2,0
			c-0.7,0-1,0.3-1,0.9c0,0.8,0.5,0.8,1.1,0.8c1.4,0,2.7,0.1,4.1,0c1.5-0.1,1.9,0.3,1.9,1.7C76,61.9,76,77.4,76,93
			c0,1.5,0.5,1.8,2,1.7c1.2-0.1,2.2,0.2,2.2-1.6C80,85.3,80.1,77.5,80.1,69.6z M92.1,68.6c0,8.2,0.1,16.4-0.1,24.5
			c0,1.8,1,1.6,2.2,1.6c1.3,0,2.1,0,2.1-1.6c-0.1-16.2-0.1-32.5,0-48.7c0-1.8-1-1.5-2.1-1.5c-1.2,0-2.1-0.2-2.1,1.5
			C92.1,52.5,92.1,60.5,92.1,68.6z M117.8,79c0-3.1-1-5.3-2.6-7.3c-2.5-3-5.7-5.5-8.2-8.5c-1.1-1.4-2.2-2.8-2.6-4.5
			c-0.8-3.7,0.8-6.7,2.8-9.7c1.5-2.2,3.4-4,5.3-5.8c0.4-0.4,0.9-0.7,0.2-1.3c-0.5-0.4-0.8-0.3-1.2,0.1c-3.3,3.3-6.6,6.6-8.8,10.8
			c-2.6,5.1-2.4,9.8,1.8,14.2c2.5,2.6,5.2,4.9,7.4,7.8c1.8,2.3,2.6,4.9,1.9,7.7c-0.5,2.3-1.6,4.4-2.9,6.3c-1.5,2.1-3.2,4-5.1,5.8
			c-0.4,0.4-0.8,0.7-0.2,1.3c0.7,0.7,1,0,1.3-0.3c2.5-2.3,4.9-4.7,6.9-7.4C116,85.1,117.7,82,117.8,79z"/>
		<path class="st1" d="M38.3,94.7c-3.2,0-3.2,0-3.9-3C32.2,82.8,30,74,27.9,65.1c-0.2-1-0.6-1.4-1.7-1.3c-3.8,0.1-7.6,0.1-11.4,0
			c-1,0-1.3,0.3-1.5,1.2c-1.9,9.3-3.9,18.6-5.9,27.9c-0.1,0.5-0.1,1.1-0.4,1.5c-0.4,0.7-1.3,0.4-1.9,0.3c-0.9-0.2-0.3-0.9-0.2-1.3
			c3.5-18.8,7.1-37.6,10.7-56.5c0.7-3.6,1.4-7.1,2-10.7c0.2-0.9,0.6-1.2,1.6-1.2c4.3,0,4.3-0.1,5.3,4C30,50.3,35.4,71.5,41,92.8
			c0.5,1.7,0,2.2-1.7,1.9C39,94.7,38.7,94.7,38.3,94.7z M19.5,32.4c-0.2,0.4-0.4,0.6-0.4,0.7c-1.7,9-3.3,18.1-5,27.1
			c-0.2,1,0,1.2,1.1,1.2c3.3-0.1,6.6-0.1,9.9,0c1.6,0.1,1.9-0.3,1.5-1.8C24.1,50.7,21.9,41.6,19.5,32.4z"/>
		<path class="st2" d="M58.6,44.5C58.7,39.9,61,36,63,32c2.5-5,5.3-9.8,8.1-14.9c-3.8-0.4-7.4-1-11.1-1.3c-3.5-0.3-6.9-0.7-10.4-0.1
			c-3.6,0.6-4.4,2-2.6,4.9c0.8,1.3,1.9,2.5,2.8,3.8c0.2,0.3,0.7,0.6,0.3,1.1c-0.4,0.4-0.8,0.2-1.2-0.1c-1.9-1.7-3.7-3.5-4.6-5.8
			c-0.5-1.3,0.1-2.4,1.1-3.4c1.9-1.7,4.3-2.4,6.8-2.5c2.9-0.1,5.9,0.2,8.8,0.5c3.7,0.5,7.5,0.2,11.7,0.9c-1.1-0.8-1.2-1.4-0.3-1.9
			c1.1-0.6,2.1-1.8,3.4-1c1.8,1.1-0.6,1.9-0.6,3.1c0.9,0.1,1.9,0.1,2.8,0.3c1.2,0.3,1.9-0.1,2.6-0.9C84.1,10.8,88,7.3,92.9,5
			c4.2-2,8.5-3.3,13.3-2.4c5.1,1,8.7,4.7,8.3,9c-0.2,2.7-1.8,4.9-4.1,6.6c-2.3,1.6-4.9,2.6-7.5,3.7c-3.8,1.6-7.6,2.8-11.6,3.7
			c-5.5,1.3-11.1,2-16.7,1.7c-0.8,0-1.2,0.3-1.5,0.9c-1.4,2.4-2.9,4.7-4.3,7.1c-0.2,0.2-0.3,0.4-0.5,0.6c0,0.1-0.1,0.3-0.1,0.4
			c0.1-0.1,0.2-0.1,0.4-0.2c0.2-0.2,0.4-0.3,0.6-0.5c1.7-1.2,3.5-2.4,5.2-3.7c1-0.7,2.1-1,3.3-1.4c0.5-0.2,1-0.3,1.5,0.3
			c0.4,0.6,0.5,0.9,0.1,1.5c-1.5,2-2.7,4.1-3.7,6.3c-0.3,0.6-0.7,1.3-0.2,1.8c0.6,0.6,1.3,0,1.9-0.2c1.8-0.7,3-1.6,3.6-3.7
			c1.2-4.2,4.3-7.3,8.3-9.6c1.9-1.1,3.2-0.9,4,0.3c1,1.4,0.6,2.6-1.1,3.7c-0.2,0.2-0.7,0.1-0.6,0.7c2.1,0.3,4.1,0.3,5.9-1
			c0.4-0.3,0.8-0.6,1.1-0.1c0.4,0.4-0.1,0.8-0.4,1.1c-1.1,1-2.4,1.6-4,1.6c-2.4,0-4.8,0.2-7.1,0.1c-1.8-0.1-2.9,0.5-3.6,2
			c-0.2,0.4-0.5,0.7-0.6,1.1c-0.4,1.2-1.3,2.5-0.2,3.7c1.1,1.2,2.5,0.3,3.8,0c1.2-0.3,2.3-0.9,3.9-0.7c-1.6,1.2-2.8,2.2-4.5,2.7
			c-1.8,0.5-3.4,0.3-4.5-1.1c-0.8-1-1.3-0.8-2.1-0.2c-1,0.6-2.1,1.1-3.2,1.5c-1.2,0.5-2.2,0.3-3.2-0.5c-1-0.8-0.8-1.8-0.4-2.8
			c0.7-1.6,1.6-3.1,2.7-4.5c0.3-0.4,0.9-0.7,0.7-1.5c-1.7,0.7-3.1,1.9-4.4,3c-2.1,1.8-4.2,3.7-6.1,5.7c-0.4,0.4-0.8,1.1-1.6,0.7
			c-0.7-0.4-0.5-1.1-0.1-1.7c2.2-3.8,4.4-7.7,6.7-11.5c0.6-1,1.5-2-0.3-2.8c-0.4-0.2-0.5-0.8-0.9-1.3c-3.1,5.2-6,10.4-8.2,15.9
			c-0.3,0.8-0.6,1.7-0.1,2.6c0.3,0.7,0,1.3-0.8,1.6C59.5,44.9,59.1,44.7,58.6,44.5z M74.8,25.6c0.5,0.4,0.9,0.3,1.4,0.3
			c8.4,0,16.4-1.8,24.2-4.8c3.8-1.5,7.2-3.4,10.1-6c3.9-3.6,3.2-7.8-1.8-10.2c-3.7-1.8-7.4-1.7-11.2-0.3c-4.8,1.9-8.8,4.8-12.5,8.2
			c-0.6,0.6-0.7,1.1-0.4,1.9c0.8,2.3-0.7,4-3.3,3.9c-0.7,0-1.4-0.2-1.9,0.5C77.7,21.2,76.1,23.3,74.8,25.6z M69.9,23.7
			c1.6-1.1,3-1.7,4.5-2.1c1.7-0.4,2.1-2,3-3.1c0.3-0.4-0.3-0.5-0.6-0.6c-0.8-0.1-1.5-0.2-2.3-0.3c-0.6-0.1-1.3-0.1-1.5,0.5
			C72.3,20,70.9,21.5,69.9,23.7z M86.7,31.3c2.5,0.2,4.6-1.1,5-3.3C89.6,28.6,88.2,29.9,86.7,31.3z M73.9,23.2
			c-1.2,0.2-1.7,0.8-2.3,1.3c-0.3,0.2-0.9,0.5-0.4,0.9c0.5,0.4,1.1,0.4,1.4-0.2C73,24.7,73.4,24.1,73.9,23.2z"/>
		<path class="st1" d="M58.6,44.5c0.4,0.2,0.9,0.3,1.3,0.5c5,3,8.3,7.1,7.7,12.8c-0.6,5.5-3.7,9.6-9.1,12.2
			c-0.4,0.2-0.8,0.3-1.4,0.6c1.3,0.5,2.4,0.9,3.5,1.3c4.2,1.7,6.2,4.7,6.4,8.8c0.1,1.7,0,3.4,0,5.2c0,2.8,0.8,5.5,2.4,8.2
			c-1.4,0-2.6,0-3.9,0c-0.8,0-1.1-0.5-1.3-1c-0.8-1.7-1.1-3.4-1-5.2c0.1-3,0-5.9-0.8-8.8c-1.7-6.1-7.8-7.7-12.6-7.5
			c-1.3,0.1-0.7,1-0.7,1.5c0,6.6,0,13.2,0,19.7c0,0.6,0.4,1.6-0.3,1.8c-1.1,0.3-2.3,0.2-3.4,0c-0.5-0.1-0.3-0.7-0.3-1.1
			c0-16.5,0-33,0-49.4c0-0.9,0.3-1.2,1.3-1.2C50.4,42.8,54.6,43.1,58.6,44.5z M48.9,57.1c0,3.7,0.1,7.5,0,11.2
			c0,1.3,0.3,1.7,1.8,1.6c7.2-0.4,12.7-6.2,12.5-13.3c-0.2-6.6-6.1-11.9-13.1-12c-1.2,0-1.1,0.6-1.1,1.3
			C48.9,49.6,48.9,53.4,48.9,57.1z"/>
		<path class="st1" d="M129.2,69.6c0,7.8-0.1,15.6,0.1,23.5c0,1.9-1.1,1.5-2.2,1.6c-1.4,0.1-2-0.1-2-1.7c0.1-15.6,0-31.2,0.1-46.8
			c0-1.4-0.4-1.9-1.9-1.7c-1.4,0.1-2.8,0-4.2,0c-0.6,0-1-0.1-0.9-0.8c0-0.7,0.2-1,1-1c5.4,0,10.8,0,16.2,0c0.8,0,0.9,0.4,0.9,1
			c0,0.7-0.4,0.7-1,0.7c-1.4,0-2.8,0.1-4.3,0c-1.4-0.1-1.8,0.2-1.8,1.6C129.2,54,129.2,61.8,129.2,69.6z"/>
		<path class="st1" d="M80.1,69.6c0,7.8-0.1,15.6,0.1,23.5c0,1.8-1,1.5-2.2,1.6c-1.4,0.1-2-0.2-2-1.7c0.1-15.6,0-31.2,0.1-46.8
			c0-1.5-0.4-1.8-1.9-1.7c-1.3,0.1-2.7,0-4.1,0c-0.6,0-1.2,0.1-1.1-0.8c0-0.7,0.3-0.9,1-0.9c5.4,0,10.8,0,16.2,0
			c0.9,0,0.8,0.5,0.9,1c0.1,0.8-0.5,0.7-1,0.7c-1.4,0-2.8,0.1-4.2,0c-1.4-0.1-1.8,0.2-1.8,1.6C80.1,54,80.1,61.8,80.1,69.6z"/>
		<path class="st1" d="M92.1,68.6c0-8.1,0.1-16.1-0.1-24.2c0-1.8,0.9-1.5,2.1-1.5c1.2,0,2.2-0.2,2.1,1.5c-0.1,16.2-0.1,32.5,0,48.7
			c0,1.6-0.8,1.6-2.1,1.6c-1.2,0-2.2,0.2-2.2-1.6C92.1,84.9,92.1,76.7,92.1,68.6z"/>
		<path class="st1" d="M117.8,79c-0.1,3-1.8,6.1-3.9,9.1c-2,2.7-4.4,5.1-6.9,7.4c-0.3,0.3-0.6,1-1.3,0.3c-0.6-0.6-0.3-0.9,0.2-1.3
			c1.9-1.8,3.6-3.7,5.1-5.8c1.4-2,2.4-4,2.9-6.3c0.6-2.8-0.1-5.4-1.9-7.7c-2.2-2.8-4.9-5.2-7.4-7.8c-4.2-4.4-4.5-9.1-1.8-14.2
			c2.1-4.1,5.4-7.5,8.8-10.8c0.4-0.4,0.7-0.5,1.2-0.1c0.8,0.6,0.2,0.9-0.2,1.3c-2,1.8-3.9,3.7-5.3,5.8c-2,3-3.6,6-2.8,9.7
			c0.4,1.7,1.4,3.1,2.6,4.5c2.5,3,5.7,5.5,8.2,8.5C116.8,73.7,117.8,75.9,117.8,79z"/>
		<path class="st0" d="M19.5,32.4c2.4,9.3,4.7,18.3,7,27.3c0.4,1.4,0.1,1.8-1.5,1.8c-3.3-0.1-6.6-0.1-9.9,0c-1.1,0-1.3-0.3-1.1-1.2
			c1.7-9,3.4-18.1,5-27.1C19.1,33,19.2,32.8,19.5,32.4z"/>
		<path class="st0" d="M74.8,25.6c1.3-2.3,3-4.4,4.6-6.5c0.5-0.7,1.2-0.5,1.9-0.5c2.7,0.1,4.2-1.5,3.3-3.9c-0.3-0.8-0.2-1.3,0.4-1.9
			c3.6-3.4,7.6-6.4,12.5-8.2c3.8-1.4,7.5-1.5,11.2,0.3c4.9,2.4,5.7,6.5,1.8,10.2c-2.9,2.7-6.3,4.6-10.1,6c-7.8,3-15.7,4.8-24.2,4.8
			C75.7,25.9,75.3,26,74.8,25.6z"/>
		<path class="st0" d="M69.9,23.7c1-2.2,2.5-3.7,3-5.6c0.2-0.6,0.9-0.6,1.5-0.5c0.8,0.1,1.5,0.2,2.3,0.3c0.4,0.1,1,0.2,0.6,0.6
			c-0.9,1.1-1.3,2.6-3,3.1C72.9,21.9,71.5,22.5,69.9,23.7z"/>
		<path class="st0" d="M86.7,31.3c1.5-1.3,2.9-2.7,5-3.3C91.3,30.1,89.2,31.5,86.7,31.3z"/>
		<path class="st0" d="M73.9,23.2c-0.5,0.8-0.9,1.4-1.3,2c-0.4,0.6-1,0.6-1.4,0.2c-0.5-0.4,0.2-0.7,0.4-0.9
			C72.2,24,72.7,23.5,73.9,23.2z"/>
		<path class="st0" d="M68.3,35.9c0.2-0.2,0.3-0.4,0.5-0.6c0.1,0.1,0.2,0.2,0.4,0.4c-0.2,0.2-0.4,0.3-0.6,0.5
			C68.5,36,68.4,35.9,68.3,35.9z"/>
		<path class="st0" d="M68.5,36.1c-0.1,0.1-0.2,0.1-0.4,0.2c0-0.1,0.1-0.3,0.1-0.4C68.4,35.9,68.5,36,68.5,36.1z"/>
		<path class="st0" d="M48.9,57.1c0-3.7,0-7.5,0-11.2c0-0.7-0.1-1.3,1.1-1.3c7.1,0,12.9,5.3,13.1,12c0.2,7.1-5.3,12.9-12.5,13.3
			c-1.5,0.1-1.8-0.3-1.8-1.6C49,64.5,48.9,60.8,48.9,57.1z"/>
	</g>
</g>
</svg>
